<svg xmlns="http://www.w3.org/2000/svg" xmlns:xlink="http://www.w3.org/1999/xlink" width="500" zoomAndPan="magnify" viewBox="0 0 375 374.999991" height="500" preserveAspectRatio="xMidYMid meet" version="1.2"><defs><clipPath id="534c233c30"><path d="M 84.769531 178 L 176 178 L 176 214 L 84.769531 214 Z M 84.769531 178 "/></clipPath><clipPath id="248ead144f"><path d="M 85 55.460938 L 271 55.460938 L 271 257 L 85 257 Z M 85 55.460938 "/></clipPath><clipPath id="57f0ddae12"><path d="M 136.835938 147.738281 L 290.160156 147.738281 L 290.160156 269.210938 L 136.835938 269.210938 Z M 136.835938 147.738281 "/></clipPath></defs><g id="47d2ee17fe"><path style=" stroke:none;fill-rule:nonzero;fill:#83c3ec;fill-opacity:1;" d="M 148.359375 174.476562 C 148.484375 174.4375 148.476562 174.4375 148.359375 174.476562 Z M 138.152344 177.8125 C 144.914062 175.601562 147.75 174.675781 148.328125 174.488281 C 147.398438 174.792969 141.210938 176.8125 138.164062 177.808594 C 165.609375 168.84375 184.550781 170.335938 194.585938 172.550781 C 181.320312 165.039062 165.339844 164.195312 150.605469 166.828125 C 144.898438 167.84375 139.335938 169.511719 133.664062 170.699219 C 128.648438 171.746094 123.585938 172.585938 118.5 173.183594 C 111.625 173.988281 104.671875 174.386719 97.75 174.113281 C 95.902344 174.042969 94.035156 173.941406 92.199219 173.691406 L 112.386719 184.132812 C 119.664062 182.949219 128.378906 181.003906 138.152344 177.8125 "/><path style=" stroke:none;fill-rule:nonzero;fill:#83c3ec;fill-opacity:1;" d="M 193.863281 124.9375 C 193.832031 125.058594 193.832031 125.066406 193.863281 124.9375 Z M 196.324219 114.484375 C 195.609375 117.53125 194.164062 123.652344 193.886719 124.832031 C 194.0625 124.085938 194.757812 121.144531 196.328125 114.476562 C 198.6875 104.460938 199.894531 95.605469 200.460938 88.246094 L 188.378906 68.976562 C 189.003906 71.765625 189.324219 74.636719 189.59375 77.480469 C 190.332031 85.300781 190.316406 93.195312 189.78125 101.03125 C 189.410156 106.558594 188.765625 112.066406 187.882812 117.535156 C 186.996094 123.035156 186.199219 128.5 186.0625 134.078125 C 185.863281 142.433594 186.878906 150.875 189.628906 158.789062 C 191.148438 163.167969 193.199219 167.378906 195.8125 171.214844 C 192.769531 161.390625 189.695312 142.617188 196.324219 114.484375 "/><path style=" stroke:none;fill-rule:nonzero;fill:#65b5e5;fill-opacity:1;" d="M 132.878906 187.949219 C 134.539062 187.238281 133.96875 187.484375 132.882812 187.949219 C 151.433594 179.984375 171.738281 174.722656 192.039062 175.152344 C 192.539062 175.160156 193.039062 175.175781 193.535156 175.195312 C 178.777344 172.074219 163.136719 173.917969 148.679688 177.632812 C 143.023438 179.085938 137.523438 181.035156 131.910156 182.625 C 126.917969 184.039062 121.863281 185.238281 116.765625 186.199219 C 108.292969 187.796875 99.585938 188.871094 90.949219 188.65625 C 90.296875 188.640625 89.644531 188.621094 88.992188 188.570312 L 107.960938 196.910156 C 115.191406 194.796875 123.691406 191.898438 132.878906 187.949219 "/><path style=" stroke:none;fill-rule:nonzero;fill:#65b5e5;fill-opacity:1;" d="M 203.132812 89.882812 C 203.101562 90.222656 203.113281 90.085938 203.128906 89.914062 C 202.679688 95.035156 201.992188 100.136719 201.089844 105.195312 C 200.058594 110.953125 198.574219 116.609375 197.5 122.351562 C 195.753906 131.667969 194.851562 141.183594 195.28125 150.664062 C 195.574219 157.171875 196.480469 163.699219 198.355469 169.949219 C 195.964844 150.238281 199.164062 129.949219 205.085938 111.128906 C 208.035156 101.75 210.855469 92.410156 212.8125 82.757812 L 202.921875 64.53125 C 203.277344 66.742188 203.425781 68.992188 203.542969 71.222656 C 203.863281 77.433594 203.664062 83.667969 203.132812 89.859375 C 203.148438 89.671875 203.164062 89.496094 203.132812 89.882812 "/><g clip-rule="nonzero" clip-path="url(#534c233c30)"><path style=" stroke:none;fill-rule:nonzero;fill:#52afdf;fill-opacity:1;" d="M 130.898438 199.890625 C 130.976562 199.835938 131.042969 199.789062 131.097656 199.75 C 131.039062 199.789062 130.976562 199.835938 130.898438 199.890625 C 144.476562 190.351562 159.730469 183.109375 175.773438 178.855469 C 164.742188 180.210938 153.898438 182.988281 143.457031 186.761719 C 137.917969 188.761719 132.5625 191.195312 127.082031 193.332031 C 122.046875 195.296875 116.945312 197.078125 111.785156 198.675781 C 103.039062 201.382812 93.980469 203.816406 84.871094 204.929688 L 105.265625 213.898438 C 112.589844 210.941406 121.476562 206.507812 130.898438 199.890625 "/></g><path style=" stroke:none;fill-rule:nonzero;fill:#52afdf;fill-opacity:1;" d="M 211.421875 100.164062 C 209.804688 105.828125 207.816406 111.375 206.21875 117.046875 C 203.214844 127.726562 201.195312 138.75 200.605469 149.84375 C 200.570312 150.535156 200.539062 151.226562 200.511719 151.921875 C 202.453125 140.9375 205.773438 130.195312 210.265625 119.992188 C 214.824219 109.628906 221.132812 100.1875 225.488281 89.726562 C 226.996094 86.097656 228.335938 82.402344 229.496094 78.648438 L 218.863281 59.050781 C 218.542969 67.570312 217.050781 76.128906 215.308594 84.449219 C 214.207031 89.734375 212.90625 94.976562 211.421875 100.164062 "/><path style=" stroke:none;fill-rule:nonzero;fill:#3d94c6;fill-opacity:1;" d="M 132.054688 211.871094 C 140.617188 205.917969 149.277344 200.109375 158.160156 194.628906 C 167.023438 189.160156 176.070312 183.871094 185.542969 179.519531 C 174.820312 181.554688 164.351562 184.976562 154.441406 189.542969 C 149.324219 191.898438 144.351562 194.558594 139.558594 197.515625 C 134.601562 200.570312 129.941406 204.066406 124.964844 207.097656 C 117.390625 211.703125 109.359375 215.585938 100.984375 218.5 C 96.402344 220.097656 91.621094 221.578125 86.796875 222.238281 L 103.558594 229.609375 C 110.148438 226.179688 119.570312 220.652344 132.054688 211.871094 "/><path style=" stroke:none;fill-rule:nonzero;fill:#3d94c6;fill-opacity:1;" d="M 231.933594 80.230469 C 231.484375 81.652344 231.816406 80.597656 231.933594 80.238281 C 230.363281 85.191406 228.484375 90.046875 226.324219 94.773438 C 223.949219 99.984375 221.085938 104.894531 218.335938 109.90625 C 212.898438 119.800781 208.660156 130.347656 205.757812 141.261719 C 203.984375 147.933594 202.703125 154.746094 201.992188 161.613281 C 205.929688 150.691406 211.039062 140.175781 216.355469 129.867188 C 221.726562 119.445312 227.675781 109.367188 233.378906 99.125 C 237.625 91.496094 241.625 83.699219 244.992188 75.632812 L 236.25 59.527344 C 235.890625 66.519531 234.035156 73.578125 231.941406 80.214844 C 231.972656 80.113281 231.980469 80.082031 231.933594 80.230469 "/><g clip-rule="nonzero" clip-path="url(#248ead144f)"><path style=" stroke:none;fill-rule:nonzero;fill:#407fc3;fill-opacity:1;" d="M 136.890625 228.441406 L 142.765625 225.183594 L 200.933594 192.953125 L 208.703125 184.492188 L 208.878906 184.300781 L 216.648438 175.839844 L 243.863281 115.117188 L 246.613281 108.980469 L 266.988281 63.519531 L 270.601562 55.460938 L 264.90625 58.035156 L 251.945312 63.898438 C 251.570312 65.878906 250.90625 67.824219 250.253906 69.722656 C 248.734375 74.117188 246.910156 78.40625 244.960938 82.625 C 240.757812 91.726562 235.863281 100.453125 230.851562 109.125 C 224.984375 119.289062 219.390625 129.628906 214.269531 140.191406 C 211.746094 145.402344 209.332031 150.664062 207.132812 156.019531 C 205.070312 161.050781 203.121094 166.179688 201.859375 171.476562 C 201.410156 173.355469 201.039062 175.277344 200.984375 177.210938 C 195.660156 177.808594 190.445312 180.285156 185.648438 182.539062 C 180.472656 184.96875 175.425781 187.679688 170.464844 190.519531 C 160.390625 196.285156 150.597656 202.539062 141 209.0625 C 132.136719 215.09375 123.445312 221.34375 114.222656 226.835938 C 107.546875 230.8125 100.585938 234.859375 93.179688 237.308594 C 92.941406 237.386719 92.703125 237.464844 92.460938 237.53125 L 87.710938 250.949219 L 85.621094 256.847656 L 93.339844 252.570312 L 136.890625 228.441406 "/></g><g clip-rule="nonzero" clip-path="url(#57f0ddae12)"><path style=" stroke:none;fill-rule:nonzero;fill:#3776b0;fill-opacity:1;" d="M 256.492188 166.230469 C 253.558594 166.230469 251.183594 164.488281 251.183594 162.335938 C 251.183594 160.1875 253.558594 158.445312 256.492188 158.445312 C 259.425781 158.445312 261.804688 160.1875 261.804688 162.335938 C 261.804688 164.488281 259.425781 166.230469 256.492188 166.230469 Z M 275.289062 162.109375 C 275.289062 162.109375 275.183594 147.867188 252.972656 147.867188 C 240.53125 147.867188 231.746094 155.9375 228.042969 160.09375 L 227.695312 159.738281 L 217.703125 180.921875 L 211.453125 187.386719 L 211.3125 187.53125 L 205.0625 194 L 180.863281 206.738281 C 181.230469 206.78125 181.59375 206.828125 181.960938 206.867188 L 136.847656 252.21875 C 136.847656 252.21875 139.820312 254.964844 144.820312 258.25 L 175.789062 223.414062 L 148.40625 260.472656 C 150.742188 261.835938 153.371094 263.207031 156.230469 264.449219 L 183.191406 227.863281 L 160.128906 265.992188 C 163.578125 267.234375 167.289062 268.222656 171.175781 268.761719 L 191.3125 232.035156 L 175.207031 269.148438 C 181.160156 269.457031 187.429688 268.609375 193.742188 265.933594 L 193.742188 247.175781 C 193.742188 243.226562 194.933594 240.589844 196.199219 238.898438 C 197.648438 236.972656 201.246094 236.566406 204.605469 236.558594 C 217.414062 236.539062 249.246094 232.246094 258.816406 191.421875 C 258.816406 191.421875 267.390625 174.371094 280.25 174.371094 C 287.050781 174.371094 289.429688 174.371094 290.160156 174.371094 L 275.289062 162.109375 "/></g><g style="fill:#000000;fill-opacity:1;"><g transform="translate(57.915763, 316.6745)"><path style="stroke:none" d="M 10.015625 -4.65625 L 4.359375 -4.65625 C 3.734375 -3.25 3.421875 -2.269531 3.421875 -1.71875 C 3.421875 -1.320312 3.566406 -1.066406 3.859375 -0.953125 C 4.160156 -0.847656 4.613281 -0.796875 5.21875 -0.796875 L 5.21875 0 L -0.265625 0 L -0.265625 -0.796875 C 0.0546875 -0.835938 0.332031 -0.890625 0.5625 -0.953125 C 0.800781 -1.023438 1.007812 -1.117188 1.1875 -1.234375 C 1.363281 -1.359375 1.519531 -1.515625 1.65625 -1.703125 C 1.789062 -1.898438 1.921875 -2.140625 2.046875 -2.421875 L 7.296875 -15.59375 L 8.78125 -15.59375 L 13.5625 -3.921875 C 13.84375 -3.242188 14.078125 -2.707031 14.265625 -2.3125 C 14.460938 -1.925781 14.671875 -1.628906 14.890625 -1.421875 C 15.109375 -1.222656 15.359375 -1.082031 15.640625 -1 C 15.929688 -0.914062 16.304688 -0.851562 16.765625 -0.8125 L 16.765625 0 L 9.203125 0 L 9.203125 -0.8125 C 9.835938 -0.84375 10.296875 -0.910156 10.578125 -1.015625 C 10.859375 -1.128906 11 -1.34375 11 -1.65625 C 11 -1.84375 10.953125 -2.082031 10.859375 -2.375 C 10.765625 -2.664062 10.640625 -3.023438 10.484375 -3.453125 Z M 4.8125 -5.859375 L 9.578125 -5.859375 L 7.28125 -11.921875 L 7.203125 -11.921875 Z M 4.8125 -5.859375 "/></g></g><g style="fill:#000000;fill-opacity:1;"><g transform="translate(77.48945, 316.6745)"><path style="stroke:none" d="M 0.703125 0 L 0.703125 -0.796875 C 1.140625 -0.804688 1.492188 -0.84375 1.765625 -0.90625 C 2.046875 -0.96875 2.257812 -1.082031 2.40625 -1.25 C 2.5625 -1.414062 2.664062 -1.640625 2.71875 -1.921875 C 2.769531 -2.210938 2.796875 -2.597656 2.796875 -3.078125 L 2.796875 -12.3125 C 2.796875 -12.78125 2.773438 -13.15625 2.734375 -13.4375 C 2.703125 -13.726562 2.617188 -13.957031 2.484375 -14.125 C 2.347656 -14.289062 2.160156 -14.40625 1.921875 -14.46875 C 1.691406 -14.53125 1.390625 -14.570312 1.015625 -14.59375 L 1.015625 -15.40625 L 8.625 -15.40625 C 9.90625 -15.40625 11.082031 -15.203125 12.15625 -14.796875 C 13.238281 -14.398438 14.171875 -13.847656 14.953125 -13.140625 C 15.742188 -12.429688 16.359375 -11.585938 16.796875 -10.609375 C 17.234375 -9.640625 17.453125 -8.582031 17.453125 -7.4375 C 17.453125 -6.34375 17.242188 -5.335938 16.828125 -4.421875 C 16.421875 -3.515625 15.847656 -2.734375 15.109375 -2.078125 C 14.367188 -1.421875 13.484375 -0.910156 12.453125 -0.546875 C 11.421875 -0.179688 10.285156 0 9.046875 0 Z M 6.078125 -14.1875 C 5.847656 -14.1875 5.734375 -14.070312 5.734375 -13.84375 L 5.734375 -3.5 C 5.734375 -2.726562 5.972656 -2.15625 6.453125 -1.78125 C 6.941406 -1.40625 7.6875 -1.21875 8.6875 -1.21875 C 10.425781 -1.21875 11.765625 -1.742188 12.703125 -2.796875 C 13.648438 -3.847656 14.125 -5.382812 14.125 -7.40625 C 14.125 -8.46875 13.992188 -9.414062 13.734375 -10.25 C 13.484375 -11.09375 13.117188 -11.804688 12.640625 -12.390625 C 12.160156 -12.972656 11.578125 -13.414062 10.890625 -13.71875 C 10.203125 -14.03125 9.429688 -14.1875 8.578125 -14.1875 Z M 6.078125 -14.1875 "/></g></g><g style="fill:#000000;fill-opacity:1;"><g transform="translate(99.262279, 316.6745)"><path style="stroke:none" d="M 11.625 -3.734375 L 16.234375 -15.40625 L 22.078125 -15.40625 L 22.078125 -14.59375 C 21.640625 -14.59375 21.28125 -14.550781 21 -14.46875 C 20.726562 -14.382812 20.519531 -14.226562 20.375 -14 C 20.226562 -13.769531 20.128906 -13.457031 20.078125 -13.0625 C 20.035156 -12.675781 20.015625 -12.179688 20.015625 -11.578125 L 20.015625 -3.8125 C 20.015625 -3.144531 20.039062 -2.617188 20.09375 -2.234375 C 20.15625 -1.847656 20.265625 -1.546875 20.421875 -1.328125 C 20.578125 -1.117188 20.804688 -0.976562 21.109375 -0.90625 C 21.410156 -0.84375 21.804688 -0.804688 22.296875 -0.796875 L 22.296875 0 L 14.78125 0 L 14.78125 -0.796875 C 15.269531 -0.804688 15.664062 -0.847656 15.96875 -0.921875 C 16.269531 -1.003906 16.503906 -1.144531 16.671875 -1.34375 C 16.835938 -1.539062 16.945312 -1.820312 17 -2.1875 C 17.050781 -2.550781 17.078125 -3.050781 17.078125 -3.6875 L 17.078125 -13.046875 L 16.984375 -13.046875 L 11.59375 0.203125 L 10.125 0.203125 L 4.5625 -13.046875 L 4.484375 -13.046875 L 4.484375 -3.8125 C 4.484375 -3.144531 4.507812 -2.617188 4.5625 -2.234375 C 4.613281 -1.847656 4.71875 -1.546875 4.875 -1.328125 C 5.039062 -1.117188 5.269531 -0.976562 5.5625 -0.90625 C 5.863281 -0.84375 6.265625 -0.804688 6.765625 -0.796875 L 6.765625 0 L 0.59375 0 L 0.59375 -0.796875 C 1.09375 -0.804688 1.492188 -0.847656 1.796875 -0.921875 C 2.109375 -1.003906 2.347656 -1.144531 2.515625 -1.34375 C 2.679688 -1.539062 2.789062 -1.820312 2.84375 -2.1875 C 2.894531 -2.550781 2.921875 -3.050781 2.921875 -3.6875 L 2.921875 -11.71875 C 2.921875 -12.28125 2.894531 -12.75 2.84375 -13.125 C 2.789062 -13.5 2.6875 -13.796875 2.53125 -14.015625 C 2.382812 -14.234375 2.175781 -14.382812 1.90625 -14.46875 C 1.632812 -14.550781 1.269531 -14.59375 0.8125 -14.59375 L 0.8125 -15.40625 L 6.875 -15.40625 L 11.546875 -3.734375 Z M 11.625 -3.734375 "/></g></g><g style="fill:#000000;fill-opacity:1;"><g transform="translate(125.553316, 316.6745)"><path style="stroke:none" d="M 7.859375 0 L 0.71875 0 L 0.71875 -0.796875 C 1.175781 -0.804688 1.539062 -0.847656 1.8125 -0.921875 C 2.082031 -1.003906 2.289062 -1.144531 2.4375 -1.34375 C 2.582031 -1.539062 2.679688 -1.820312 2.734375 -2.1875 C 2.785156 -2.550781 2.8125 -3.050781 2.8125 -3.6875 L 2.8125 -11.71875 C 2.8125 -12.28125 2.789062 -12.742188 2.75 -13.109375 C 2.707031 -13.472656 2.617188 -13.757812 2.484375 -13.96875 C 2.347656 -14.1875 2.15625 -14.335938 1.90625 -14.421875 C 1.664062 -14.515625 1.335938 -14.570312 0.921875 -14.59375 L 0.921875 -15.40625 L 7.65625 -15.40625 L 7.65625 -14.59375 C 7.25 -14.570312 6.921875 -14.515625 6.671875 -14.421875 C 6.421875 -14.335938 6.226562 -14.1875 6.09375 -13.96875 C 5.96875 -13.757812 5.878906 -13.472656 5.828125 -13.109375 C 5.785156 -12.742188 5.765625 -12.28125 5.765625 -11.71875 L 5.765625 -3.6875 C 5.765625 -3.050781 5.785156 -2.550781 5.828125 -2.1875 C 5.878906 -1.820312 5.976562 -1.539062 6.125 -1.34375 C 6.28125 -1.144531 6.492188 -1.003906 6.765625 -0.921875 C 7.046875 -0.847656 7.410156 -0.804688 7.859375 -0.796875 Z M 7.859375 0 "/></g></g><g style="fill:#000000;fill-opacity:1;"><g transform="translate(137.530003, 316.6745)"><path style="stroke:none" d="M 1.078125 -5.09375 L 1.859375 -5.09375 C 2.046875 -3.832031 2.550781 -2.835938 3.375 -2.109375 C 4.207031 -1.378906 5.226562 -1.015625 6.4375 -1.015625 C 6.9375 -1.015625 7.390625 -1.070312 7.796875 -1.1875 C 8.210938 -1.3125 8.566406 -1.484375 8.859375 -1.703125 C 9.148438 -1.929688 9.375 -2.191406 9.53125 -2.484375 C 9.695312 -2.785156 9.78125 -3.125 9.78125 -3.5 C 9.78125 -3.820312 9.726562 -4.097656 9.625 -4.328125 C 9.53125 -4.566406 9.34375 -4.796875 9.0625 -5.015625 C 8.78125 -5.234375 8.394531 -5.453125 7.90625 -5.671875 C 7.425781 -5.898438 6.796875 -6.160156 6.015625 -6.453125 C 4.460938 -7.054688 3.3125 -7.753906 2.5625 -8.546875 C 1.8125 -9.335938 1.4375 -10.273438 1.4375 -11.359375 C 1.4375 -11.984375 1.554688 -12.554688 1.796875 -13.078125 C 2.035156 -13.597656 2.367188 -14.046875 2.796875 -14.421875 C 3.234375 -14.796875 3.753906 -15.082031 4.359375 -15.28125 C 4.972656 -15.488281 5.644531 -15.59375 6.375 -15.59375 C 7.0625 -15.59375 7.703125 -15.484375 8.296875 -15.265625 C 8.898438 -15.054688 9.492188 -14.738281 10.078125 -14.3125 L 10.4375 -15.3125 L 10.921875 -15.3125 L 11.140625 -11 L 10.359375 -11 C 10.035156 -12.09375 9.535156 -12.925781 8.859375 -13.5 C 8.179688 -14.082031 7.394531 -14.375 6.5 -14.375 C 5.675781 -14.375 5.003906 -14.171875 4.484375 -13.765625 C 3.972656 -13.359375 3.71875 -12.835938 3.71875 -12.203125 C 3.71875 -11.921875 3.765625 -11.671875 3.859375 -11.453125 C 3.953125 -11.234375 4.125 -11.019531 4.375 -10.8125 C 4.632812 -10.613281 4.984375 -10.410156 5.421875 -10.203125 C 5.859375 -10.003906 6.425781 -9.773438 7.125 -9.515625 C 8.050781 -9.160156 8.84375 -8.796875 9.5 -8.421875 C 10.164062 -8.054688 10.707031 -7.664062 11.125 -7.25 C 11.550781 -6.832031 11.863281 -6.390625 12.0625 -5.921875 C 12.257812 -5.453125 12.359375 -4.9375 12.359375 -4.375 C 12.359375 -3.695312 12.210938 -3.078125 11.921875 -2.515625 C 11.628906 -1.960938 11.21875 -1.484375 10.6875 -1.078125 C 10.164062 -0.679688 9.539062 -0.367188 8.8125 -0.140625 C 8.082031 0.0859375 7.28125 0.203125 6.40625 0.203125 C 5.601562 0.203125 4.878906 0.09375 4.234375 -0.125 C 3.597656 -0.34375 2.941406 -0.703125 2.265625 -1.203125 L 1.859375 0 L 1.375 0 Z M 1.078125 -5.09375 "/></g></g><g style="fill:#000000;fill-opacity:1;"><g transform="translate(154.184853, 316.6745)"><path style="stroke:none" d="M 1.078125 -5.09375 L 1.859375 -5.09375 C 2.046875 -3.832031 2.550781 -2.835938 3.375 -2.109375 C 4.207031 -1.378906 5.226562 -1.015625 6.4375 -1.015625 C 6.9375 -1.015625 7.390625 -1.070312 7.796875 -1.1875 C 8.210938 -1.3125 8.566406 -1.484375 8.859375 -1.703125 C 9.148438 -1.929688 9.375 -2.191406 9.53125 -2.484375 C 9.695312 -2.785156 9.78125 -3.125 9.78125 -3.5 C 9.78125 -3.820312 9.726562 -4.097656 9.625 -4.328125 C 9.53125 -4.566406 9.34375 -4.796875 9.0625 -5.015625 C 8.78125 -5.234375 8.394531 -5.453125 7.90625 -5.671875 C 7.425781 -5.898438 6.796875 -6.160156 6.015625 -6.453125 C 4.460938 -7.054688 3.3125 -7.753906 2.5625 -8.546875 C 1.8125 -9.335938 1.4375 -10.273438 1.4375 -11.359375 C 1.4375 -11.984375 1.554688 -12.554688 1.796875 -13.078125 C 2.035156 -13.597656 2.367188 -14.046875 2.796875 -14.421875 C 3.234375 -14.796875 3.753906 -15.082031 4.359375 -15.28125 C 4.972656 -15.488281 5.644531 -15.59375 6.375 -15.59375 C 7.0625 -15.59375 7.703125 -15.484375 8.296875 -15.265625 C 8.898438 -15.054688 9.492188 -14.738281 10.078125 -14.3125 L 10.4375 -15.3125 L 10.921875 -15.3125 L 11.140625 -11 L 10.359375 -11 C 10.035156 -12.09375 9.535156 -12.925781 8.859375 -13.5 C 8.179688 -14.082031 7.394531 -14.375 6.5 -14.375 C 5.675781 -14.375 5.003906 -14.171875 4.484375 -13.765625 C 3.972656 -13.359375 3.71875 -12.835938 3.71875 -12.203125 C 3.71875 -11.921875 3.765625 -11.671875 3.859375 -11.453125 C 3.953125 -11.234375 4.125 -11.019531 4.375 -10.8125 C 4.632812 -10.613281 4.984375 -10.410156 5.421875 -10.203125 C 5.859375 -10.003906 6.425781 -9.773438 7.125 -9.515625 C 8.050781 -9.160156 8.84375 -8.796875 9.5 -8.421875 C 10.164062 -8.054688 10.707031 -7.664062 11.125 -7.25 C 11.550781 -6.832031 11.863281 -6.390625 12.0625 -5.921875 C 12.257812 -5.453125 12.359375 -4.9375 12.359375 -4.375 C 12.359375 -3.695312 12.210938 -3.078125 11.921875 -2.515625 C 11.628906 -1.960938 11.21875 -1.484375 10.6875 -1.078125 C 10.164062 -0.679688 9.539062 -0.367188 8.8125 -0.140625 C 8.082031 0.0859375 7.28125 0.203125 6.40625 0.203125 C 5.601562 0.203125 4.878906 0.09375 4.234375 -0.125 C 3.597656 -0.34375 2.941406 -0.703125 2.265625 -1.203125 L 1.859375 0 L 1.375 0 Z M 1.078125 -5.09375 "/></g></g><g style="fill:#000000;fill-opacity:1;"><g transform="translate(170.839702, 316.6745)"><path style="stroke:none" d="M 7.859375 0 L 0.71875 0 L 0.71875 -0.796875 C 1.175781 -0.804688 1.539062 -0.847656 1.8125 -0.921875 C 2.082031 -1.003906 2.289062 -1.144531 2.4375 -1.34375 C 2.582031 -1.539062 2.679688 -1.820312 2.734375 -2.1875 C 2.785156 -2.550781 2.8125 -3.050781 2.8125 -3.6875 L 2.8125 -11.71875 C 2.8125 -12.28125 2.789062 -12.742188 2.75 -13.109375 C 2.707031 -13.472656 2.617188 -13.757812 2.484375 -13.96875 C 2.347656 -14.1875 2.15625 -14.335938 1.90625 -14.421875 C 1.664062 -14.515625 1.335938 -14.570312 0.921875 -14.59375 L 0.921875 -15.40625 L 7.65625 -15.40625 L 7.65625 -14.59375 C 7.25 -14.570312 6.921875 -14.515625 6.671875 -14.421875 C 6.421875 -14.335938 6.226562 -14.1875 6.09375 -13.96875 C 5.96875 -13.757812 5.878906 -13.472656 5.828125 -13.109375 C 5.785156 -12.742188 5.765625 -12.28125 5.765625 -11.71875 L 5.765625 -3.6875 C 5.765625 -3.050781 5.785156 -2.550781 5.828125 -2.1875 C 5.878906 -1.820312 5.976562 -1.539062 6.125 -1.34375 C 6.28125 -1.144531 6.492188 -1.003906 6.765625 -0.921875 C 7.046875 -0.847656 7.410156 -0.804688 7.859375 -0.796875 Z M 7.859375 0 "/></g></g><g style="fill:#000000;fill-opacity:1;"><g transform="translate(182.816389, 316.6745)"><path style="stroke:none" d="M 9.4375 -15.59375 C 10.632812 -15.59375 11.753906 -15.382812 12.796875 -14.96875 C 13.835938 -14.5625 14.738281 -14 15.5 -13.28125 C 16.269531 -12.5625 16.875 -11.710938 17.3125 -10.734375 C 17.757812 -9.765625 17.984375 -8.710938 17.984375 -7.578125 C 17.984375 -6.492188 17.757812 -5.476562 17.3125 -4.53125 C 16.863281 -3.59375 16.253906 -2.769531 15.484375 -2.0625 C 14.722656 -1.363281 13.820312 -0.8125 12.78125 -0.40625 C 11.738281 0 10.625 0.203125 9.4375 0.203125 C 8.25 0.203125 7.132812 0 6.09375 -0.40625 C 5.0625 -0.8125 4.15625 -1.363281 3.375 -2.0625 C 2.601562 -2.769531 2 -3.59375 1.5625 -4.53125 C 1.125 -5.476562 0.90625 -6.492188 0.90625 -7.578125 C 0.90625 -8.710938 1.125 -9.765625 1.5625 -10.734375 C 2 -11.710938 2.597656 -12.5625 3.359375 -13.28125 C 4.128906 -14 5.035156 -14.5625 6.078125 -14.96875 C 7.117188 -15.382812 8.238281 -15.59375 9.4375 -15.59375 Z M 9.4375 -1.09375 C 10.207031 -1.09375 10.90625 -1.242188 11.53125 -1.546875 C 12.164062 -1.847656 12.703125 -2.273438 13.140625 -2.828125 C 13.578125 -3.378906 13.910156 -4.050781 14.140625 -4.84375 C 14.378906 -5.644531 14.5 -6.535156 14.5 -7.515625 C 14.5 -8.554688 14.378906 -9.492188 14.140625 -10.328125 C 13.910156 -11.160156 13.578125 -11.875 13.140625 -12.46875 C 12.703125 -13.0625 12.164062 -13.515625 11.53125 -13.828125 C 10.90625 -14.140625 10.207031 -14.296875 9.4375 -14.296875 C 8.65625 -14.296875 7.953125 -14.140625 7.328125 -13.828125 C 6.710938 -13.515625 6.179688 -13.0625 5.734375 -12.46875 C 5.296875 -11.875 4.957031 -11.160156 4.71875 -10.328125 C 4.488281 -9.492188 4.375 -8.554688 4.375 -7.515625 C 4.375 -6.535156 4.488281 -5.644531 4.71875 -4.84375 C 4.957031 -4.050781 5.296875 -3.378906 5.734375 -2.828125 C 6.179688 -2.273438 6.710938 -1.847656 7.328125 -1.546875 C 7.953125 -1.242188 8.65625 -1.09375 9.4375 -1.09375 Z M 9.4375 -1.09375 "/></g></g><g style="fill:#000000;fill-opacity:1;"><g transform="translate(205.069024, 316.6745)"><path style="stroke:none" d="M 13.40625 0.203125 L 4.546875 -12.421875 L 4.453125 -12.421875 L 4.453125 -3.8125 C 4.453125 -3.144531 4.472656 -2.617188 4.515625 -2.234375 C 4.566406 -1.847656 4.671875 -1.546875 4.828125 -1.328125 C 4.984375 -1.117188 5.195312 -0.976562 5.46875 -0.90625 C 5.738281 -0.84375 6.097656 -0.804688 6.546875 -0.796875 L 6.546875 0 L 0.59375 0 L 0.59375 -0.796875 C 1.09375 -0.804688 1.488281 -0.847656 1.78125 -0.921875 C 2.082031 -1.003906 2.316406 -1.144531 2.484375 -1.34375 C 2.648438 -1.539062 2.757812 -1.820312 2.8125 -2.1875 C 2.875 -2.550781 2.90625 -3.050781 2.90625 -3.6875 L 2.90625 -11.71875 C 2.90625 -12.28125 2.875 -12.742188 2.8125 -13.109375 C 2.757812 -13.472656 2.660156 -13.757812 2.515625 -13.96875 C 2.367188 -14.1875 2.160156 -14.335938 1.890625 -14.421875 C 1.617188 -14.515625 1.253906 -14.570312 0.796875 -14.59375 L 0.796875 -15.40625 L 6.375 -15.40625 L 14.4375 -3.84375 L 14.515625 -3.84375 L 14.515625 -11.578125 C 14.515625 -12.234375 14.488281 -12.753906 14.4375 -13.140625 C 14.394531 -13.535156 14.296875 -13.835938 14.140625 -14.046875 C 13.992188 -14.265625 13.78125 -14.40625 13.5 -14.46875 C 13.226562 -14.539062 12.875 -14.582031 12.4375 -14.59375 L 12.4375 -15.40625 L 18.375 -15.40625 L 18.375 -14.59375 C 17.882812 -14.582031 17.488281 -14.539062 17.1875 -14.46875 C 16.882812 -14.394531 16.648438 -14.257812 16.484375 -14.0625 C 16.316406 -13.863281 16.207031 -13.578125 16.15625 -13.203125 C 16.101562 -12.828125 16.078125 -12.332031 16.078125 -11.71875 L 16.078125 0.203125 Z M 13.40625 0.203125 "/></g></g><g style="fill:#000000;fill-opacity:1;"><g transform="translate(227.26168, 316.6745)"><path style="stroke:none" d=""/></g></g><g style="fill:#000000;fill-opacity:1;"><g transform="translate(235.979651, 316.6745)"><path style="stroke:none" d="M 11.625 -3.734375 L 16.234375 -15.40625 L 22.078125 -15.40625 L 22.078125 -14.59375 C 21.640625 -14.59375 21.28125 -14.550781 21 -14.46875 C 20.726562 -14.382812 20.519531 -14.226562 20.375 -14 C 20.226562 -13.769531 20.128906 -13.457031 20.078125 -13.0625 C 20.035156 -12.675781 20.015625 -12.179688 20.015625 -11.578125 L 20.015625 -3.8125 C 20.015625 -3.144531 20.039062 -2.617188 20.09375 -2.234375 C 20.15625 -1.847656 20.265625 -1.546875 20.421875 -1.328125 C 20.578125 -1.117188 20.804688 -0.976562 21.109375 -0.90625 C 21.410156 -0.84375 21.804688 -0.804688 22.296875 -0.796875 L 22.296875 0 L 14.78125 0 L 14.78125 -0.796875 C 15.269531 -0.804688 15.664062 -0.847656 15.96875 -0.921875 C 16.269531 -1.003906 16.503906 -1.144531 16.671875 -1.34375 C 16.835938 -1.539062 16.945312 -1.820312 17 -2.1875 C 17.050781 -2.550781 17.078125 -3.050781 17.078125 -3.6875 L 17.078125 -13.046875 L 16.984375 -13.046875 L 11.59375 0.203125 L 10.125 0.203125 L 4.5625 -13.046875 L 4.484375 -13.046875 L 4.484375 -3.8125 C 4.484375 -3.144531 4.507812 -2.617188 4.5625 -2.234375 C 4.613281 -1.847656 4.71875 -1.546875 4.875 -1.328125 C 5.039062 -1.117188 5.269531 -0.976562 5.5625 -0.90625 C 5.863281 -0.84375 6.265625 -0.804688 6.765625 -0.796875 L 6.765625 0 L 0.59375 0 L 0.59375 -0.796875 C 1.09375 -0.804688 1.492188 -0.847656 1.796875 -0.921875 C 2.109375 -1.003906 2.347656 -1.144531 2.515625 -1.34375 C 2.679688 -1.539062 2.789062 -1.820312 2.84375 -2.1875 C 2.894531 -2.550781 2.921875 -3.050781 2.921875 -3.6875 L 2.921875 -11.71875 C 2.921875 -12.28125 2.894531 -12.75 2.84375 -13.125 C 2.789062 -13.5 2.6875 -13.796875 2.53125 -14.015625 C 2.382812 -14.234375 2.175781 -14.382812 1.90625 -14.46875 C 1.632812 -14.550781 1.269531 -14.59375 0.8125 -14.59375 L 0.8125 -15.40625 L 6.875 -15.40625 L 11.546875 -3.734375 Z M 11.625 -3.734375 "/></g></g><g style="fill:#000000;fill-opacity:1;"><g transform="translate(262.270699, 316.6745)"><path style="stroke:none" d="M 10.015625 -4.65625 L 4.359375 -4.65625 C 3.734375 -3.25 3.421875 -2.269531 3.421875 -1.71875 C 3.421875 -1.320312 3.566406 -1.066406 3.859375 -0.953125 C 4.160156 -0.847656 4.613281 -0.796875 5.21875 -0.796875 L 5.21875 0 L -0.265625 0 L -0.265625 -0.796875 C 0.0546875 -0.835938 0.332031 -0.890625 0.5625 -0.953125 C 0.800781 -1.023438 1.007812 -1.117188 1.1875 -1.234375 C 1.363281 -1.359375 1.519531 -1.515625 1.65625 -1.703125 C 1.789062 -1.898438 1.921875 -2.140625 2.046875 -2.421875 L 7.296875 -15.59375 L 8.78125 -15.59375 L 13.5625 -3.921875 C 13.84375 -3.242188 14.078125 -2.707031 14.265625 -2.3125 C 14.460938 -1.925781 14.671875 -1.628906 14.890625 -1.421875 C 15.109375 -1.222656 15.359375 -1.082031 15.640625 -1 C 15.929688 -0.914062 16.304688 -0.851562 16.765625 -0.8125 L 16.765625 0 L 9.203125 0 L 9.203125 -0.8125 C 9.835938 -0.84375 10.296875 -0.910156 10.578125 -1.015625 C 10.859375 -1.128906 11 -1.34375 11 -1.65625 C 11 -1.84375 10.953125 -2.082031 10.859375 -2.375 C 10.765625 -2.664062 10.640625 -3.023438 10.484375 -3.453125 Z M 4.8125 -5.859375 L 9.578125 -5.859375 L 7.28125 -11.921875 L 7.203125 -11.921875 Z M 4.8125 -5.859375 "/></g></g><g style="fill:#000000;fill-opacity:1;"><g transform="translate(281.844375, 316.6745)"><path style="stroke:none" d="M 16.296875 -11 L 15.4375 -11 C 15.394531 -11.65625 15.296875 -12.195312 15.140625 -12.625 C 14.992188 -13.0625 14.78125 -13.410156 14.5 -13.671875 C 14.21875 -13.929688 13.875 -14.109375 13.46875 -14.203125 C 13.070312 -14.304688 12.609375 -14.359375 12.078125 -14.359375 C 11.554688 -14.359375 11.140625 -14.347656 10.828125 -14.328125 C 10.515625 -14.304688 10.273438 -14.269531 10.109375 -14.21875 C 9.941406 -14.175781 9.832031 -14.113281 9.78125 -14.03125 C 9.726562 -13.957031 9.703125 -13.859375 9.703125 -13.734375 L 9.703125 -3.265625 C 9.703125 -2.835938 9.726562 -2.46875 9.78125 -2.15625 C 9.84375 -1.851562 9.96875 -1.601562 10.15625 -1.40625 C 10.34375 -1.21875 10.613281 -1.070312 10.96875 -0.96875 C 11.332031 -0.863281 11.8125 -0.804688 12.40625 -0.796875 L 12.40625 0 L 4.015625 0 L 4.015625 -0.796875 C 4.617188 -0.804688 5.097656 -0.863281 5.453125 -0.96875 C 5.816406 -1.070312 6.09375 -1.21875 6.28125 -1.40625 C 6.476562 -1.601562 6.609375 -1.851562 6.671875 -2.15625 C 6.734375 -2.46875 6.765625 -2.835938 6.765625 -3.265625 L 6.765625 -13.734375 C 6.765625 -13.859375 6.738281 -13.957031 6.6875 -14.03125 C 6.644531 -14.113281 6.550781 -14.175781 6.40625 -14.21875 C 6.257812 -14.269531 6.046875 -14.304688 5.765625 -14.328125 C 5.492188 -14.347656 5.140625 -14.359375 4.703125 -14.359375 C 4.222656 -14.359375 3.757812 -14.332031 3.3125 -14.28125 C 2.875 -14.238281 2.488281 -14.109375 2.15625 -13.890625 C 1.820312 -13.671875 1.550781 -13.335938 1.34375 -12.890625 C 1.144531 -12.441406 1.035156 -11.8125 1.015625 -11 L 0.234375 -11 L 0.4375 -15.40625 L 16.09375 -15.40625 Z M 16.296875 -11 "/></g></g><g style="fill:#000000;fill-opacity:1;"><g transform="translate(301.777921, 316.6745)"><path style="stroke:none" d="M 5.734375 -8.515625 C 6.585938 -8.515625 7.273438 -8.539062 7.796875 -8.59375 C 8.316406 -8.65625 8.71875 -8.769531 9 -8.9375 C 9.289062 -9.101562 9.492188 -9.34375 9.609375 -9.65625 C 9.734375 -9.976562 9.832031 -10.410156 9.90625 -10.953125 L 10.640625 -10.953125 L 10.640625 -5.09375 L 9.90625 -5.09375 C 9.820312 -5.632812 9.710938 -6.0625 9.578125 -6.375 C 9.441406 -6.695312 9.226562 -6.941406 8.9375 -7.109375 C 8.644531 -7.273438 8.25 -7.378906 7.75 -7.421875 C 7.25 -7.472656 6.578125 -7.5 5.734375 -7.5 L 5.734375 -3.375 C 5.734375 -2.945312 5.789062 -2.585938 5.90625 -2.296875 C 6.019531 -2.003906 6.207031 -1.765625 6.46875 -1.578125 C 6.738281 -1.398438 7.09375 -1.273438 7.53125 -1.203125 C 7.976562 -1.128906 8.519531 -1.09375 9.15625 -1.09375 C 9.914062 -1.09375 10.554688 -1.144531 11.078125 -1.25 C 11.609375 -1.363281 12.046875 -1.550781 12.390625 -1.8125 C 12.742188 -2.082031 13.023438 -2.441406 13.234375 -2.890625 C 13.453125 -3.335938 13.632812 -3.898438 13.78125 -4.578125 L 14.578125 -4.578125 L 14.265625 0 L 0.703125 0 L 0.703125 -0.796875 C 1.140625 -0.804688 1.5 -0.84375 1.78125 -0.90625 C 2.0625 -0.976562 2.273438 -1.09375 2.421875 -1.25 C 2.566406 -1.414062 2.664062 -1.644531 2.71875 -1.9375 C 2.769531 -2.226562 2.796875 -2.609375 2.796875 -3.078125 L 2.796875 -12.3125 C 2.796875 -12.78125 2.769531 -13.15625 2.71875 -13.4375 C 2.675781 -13.726562 2.585938 -13.957031 2.453125 -14.125 C 2.328125 -14.289062 2.140625 -14.40625 1.890625 -14.46875 C 1.640625 -14.53125 1.316406 -14.570312 0.921875 -14.59375 L 0.921875 -15.40625 L 13.5625 -15.40625 L 13.703125 -11.484375 L 12.84375 -11.484375 C 12.757812 -12.035156 12.628906 -12.492188 12.453125 -12.859375 C 12.285156 -13.234375 12.046875 -13.53125 11.734375 -13.75 C 11.429688 -13.96875 11.035156 -14.117188 10.546875 -14.203125 C 10.054688 -14.296875 9.460938 -14.34375 8.765625 -14.34375 L 6.5 -14.34375 C 6.15625 -14.34375 5.941406 -14.296875 5.859375 -14.203125 C 5.773438 -14.117188 5.734375 -13.914062 5.734375 -13.59375 Z M 5.734375 -8.515625 "/></g></g></g></svg>